<?xml version="1.0" encoding="UTF-8" standalone="no"?>
<!-- Generator: Adobe Illustrator 19.1.0, SVG Export Plug-In . SVG Version: 6.00 Build 0)  -->

<svg
   xmlns:dc="http://purl.org/dc/elements/1.1/"
   xmlns:cc="http://creativecommons.org/ns#"
   xmlns:rdf="http://www.w3.org/1999/02/22-rdf-syntax-ns#"
   xmlns:svg="http://www.w3.org/2000/svg"
   xmlns="http://www.w3.org/2000/svg"
   xmlns:sodipodi="http://sodipodi.sourceforge.net/DTD/sodipodi-0.dtd"
   xmlns:inkscape="http://www.inkscape.org/namespaces/inkscape"
   version="1.1"
   id="Layer_1"
   x="0px"
   y="0px"
   viewBox="0 0 25 17"
   xml:space="preserve"
   inkscape:version="0.91 r13725"
   sodipodi:docname="glyphicons-496-bed-alt-green.svg"
   width="25"
   height="17"><metadata
     id="metadata20"><rdf:RDF><cc:Work
         rdf:about=""><dc:format>image/svg+xml</dc:format><dc:type
           rdf:resource="http://purl.org/dc/dcmitype/StillImage" /><dc:title></dc:title></cc:Work></rdf:RDF></metadata><defs
     id="defs18" /><sodipodi:namedview
     pagecolor="#ffffff"
     bordercolor="#666666"
     borderopacity="1"
     objecttolerance="10"
     gridtolerance="10"
     guidetolerance="10"
     inkscape:pageopacity="0"
     inkscape:pageshadow="2"
     inkscape:window-width="1920"
     inkscape:window-height="1019"
     id="namedview16"
     showgrid="false"
     fit-margin-top="0"
     fit-margin-left="0"
     fit-margin-right="0"
     fit-margin-bottom="0"
     inkscape:zoom="4.9166667"
     inkscape:cx="12"
     inkscape:cy="9"
     inkscape:window-x="-9"
     inkscape:window-y="63"
     inkscape:window-maximized="1"
     inkscape:current-layer="Layer_1" /><g
     id="bed-alt_1_"
     transform="translate(-12,-16)"
     style="fill:#337ab7;fill-opacity:1"><g
       id="g4"
       style="fill:#337ab7;fill-opacity:1"><path
         d="m 36,22 -1,0 c -0.55,0 -1,0.45 -1,1 l 0,1 -19,0 0,-7 c 0,-0.55 -0.45,-1 -1,-1 l -1,0 c -0.55,0 -1,0.45 -1,1 l 0,16 3,0 0,-3 19,0 0,3 3,0 0,-10 c 0,-0.55 -0.45,-1 -1,-1 z"
         id="path6"
         inkscape:connector-curvature="0"
         style="fill:#337ab7;fill-opacity:1" /></g><g
       id="g8"
       style="fill:#337ab7;fill-opacity:1"><circle
         cx="18"
         cy="21"
         r="1.9170001"
         id="circle10"
         style="fill:#337ab7;fill-opacity:1" /></g><g
       id="g12"
       style="fill:#337ab7;fill-opacity:1"><path
         d="m 22,23 10,0 c 0.55,0 1,-0.45 1,-1 0,-0.55 -0.427,-1.142 -0.949,-1.316 L 24.948,18.316 C 24.427,18.142 23.55,18 23,18 l -1,0 c -0.55,0 -1,0.45 -1,1 l 0,3 c 0,0.55 0.45,1 1,1 z"
         id="path14"
         inkscape:connector-curvature="0"
         style="fill:#337ab7;fill-opacity:1" /></g></g></svg>