<?xml version="1.0" encoding="UTF-8" standalone="no"?>
<!-- Generator: Adobe Illustrator 19.1.0, SVG Export Plug-In . SVG Version: 6.00 Build 0)  -->

<svg
   xmlns:dc="http://purl.org/dc/elements/1.1/"
   xmlns:cc="http://creativecommons.org/ns#"
   xmlns:rdf="http://www.w3.org/1999/02/22-rdf-syntax-ns#"
   xmlns:svg="http://www.w3.org/2000/svg"
   xmlns="http://www.w3.org/2000/svg"
   xmlns:sodipodi="http://sodipodi.sourceforge.net/DTD/sodipodi-0.dtd"
   xmlns:inkscape="http://www.inkscape.org/namespaces/inkscape"
   version="1.1"
   id="Layer_1"
   x="0px"
   y="0px"
   viewBox="0 0 14 22.781118"
   xml:space="preserve"
   inkscape:version="0.91 r13725"
   sodipodi:docname="glyphicons-637-person-stick-old-blue.svg"
   width="14"
   height="22.781118"><metadata
     id="metadata5264"><rdf:RDF><cc:Work
         rdf:about=""><dc:format>image/svg+xml</dc:format><dc:type
           rdf:resource="http://purl.org/dc/dcmitype/StillImage" /><dc:title></dc:title></cc:Work></rdf:RDF></metadata><defs
     id="defs5262" /><sodipodi:namedview
     pagecolor="#ffffff"
     bordercolor="#666666"
     borderopacity="1"
     objecttolerance="10"
     gridtolerance="10"
     guidetolerance="10"
     inkscape:pageopacity="0"
     inkscape:pageshadow="2"
     inkscape:window-width="1920"
     inkscape:window-height="1019"
     id="namedview5260"
     showgrid="false"
     fit-margin-top="0"
     fit-margin-left="0"
     fit-margin-right="0"
     fit-margin-bottom="0"
     inkscape:zoom="4.9166667"
     inkscape:cx="7"
     inkscape:cy="12.000119"
     inkscape:window-x="-9"
     inkscape:window-y="63"
     inkscape:window-maximized="1"
     inkscape:current-layer="Layer_1" /><g
     id="person-stick-old_2_"
     transform="translate(-17,-13.219)"
     style="fill:#337ab7;fill-opacity:1"><path
       d="m 24.219,15.5 c 0,-1.26 1.021,-2.281 2.281,-2.281 1.26,0 2.281,1.021 2.281,2.281 0,1.26 -1.021,2.281 -2.281,2.281 -1.26,0 -2.281,-1.021 -2.281,-2.281 z m 5.547,8.234 -2.617,-1.497 c 0,0 -2.602,-4.156 -2.615,-4.172 -0.268,-0.438 -0.931,-1.276 -2.85,-0.585 -1.919,0.691 -4.106,4.082 -4.434,6.535 C 17,25.75 17,28.594 17,28.594 c 0,0 0,6.153 0,6.465 0,0.312 0.022,0.451 0.022,0.451 0.005,0.275 0.234,0.496 0.51,0.49 l 2.749,-0.046 c 0.275,-0.005 0.559,-0.256 0.559,-0.529 0,-0.273 -0.163,-0.545 -0.432,-0.604 l -1.594,-0.274 0.625,-4.453 0.771,-2.594 1.089,2.234 0.766,4.656 -0.056,1.088 c 0.005,0.275 0.234,0.496 0.51,0.49 l 2.764,-0.015 c 0.275,-0.005 0.559,-0.256 0.559,-0.529 0,-0.273 -0.163,-0.545 -0.432,-0.604 l -1.68,-0.319 0.095,-5.183 -1.344,-3.872 1.369,-3.375 2.091,1.755 c 0.032,0.041 0.785,0.204 1.568,0.365 C 27.201,24.505 27,24.935 27,25.5 c 0,0.276 0.224,0.5 0.5,0.5 0.276,0 0.5,-0.224 0.5,-0.5 0,-0.687 0.529,-0.93 0.981,-0.93 0.379,0 1.019,0.196 1.019,0.93 l 0,10 c 0,0.276 0.224,0.5 0.5,0.5 0.276,0 0.5,-0.224 0.5,-0.5 l 0,-10 c 0,-0.925 -1.234,-1.766 -1.234,-1.766 z"
       id="path5258"
       inkscape:connector-curvature="0"
       style="fill:#337ab7;fill-opacity:1" /></g></svg>