<?xml version="1.0" encoding="UTF-8" standalone="no"?>
<!-- Generator: Adobe Illustrator 19.1.0, SVG Export Plug-In . SVG Version: 6.00 Build 0)  -->

<svg
   xmlns:dc="http://purl.org/dc/elements/1.1/"
   xmlns:cc="http://creativecommons.org/ns#"
   xmlns:rdf="http://www.w3.org/1999/02/22-rdf-syntax-ns#"
   xmlns:svg="http://www.w3.org/2000/svg"
   xmlns="http://www.w3.org/2000/svg"
   xmlns:sodipodi="http://sodipodi.sourceforge.net/DTD/sodipodi-0.dtd"
   xmlns:inkscape="http://www.inkscape.org/namespaces/inkscape"
   version="1.1"
   id="Layer_1"
   x="0px"
   y="0px"
   viewBox="0 0 20 27"
   xml:space="preserve"
   inkscape:version="0.91 r13725"
   sodipodi:docname="glyphicons-30-notes-2-blue.svg"
   width="20"
   height="27"><metadata
     id="metadata13"><rdf:RDF><cc:Work
         rdf:about=""><dc:format>image/svg+xml</dc:format><dc:type
           rdf:resource="http://purl.org/dc/dcmitype/StillImage" /><dc:title></dc:title></cc:Work></rdf:RDF></metadata><defs
     id="defs11" /><sodipodi:namedview
     pagecolor="#ffffff"
     bordercolor="#666666"
     borderopacity="1"
     objecttolerance="10"
     gridtolerance="10"
     guidetolerance="10"
     inkscape:pageopacity="0"
     inkscape:pageshadow="2"
     inkscape:window-width="1920"
     inkscape:window-height="1019"
     id="namedview9"
     showgrid="false"
     fit-margin-top="0"
     fit-margin-left="0"
     fit-margin-right="0"
     fit-margin-bottom="0"
     inkscape:zoom="4.9166667"
     inkscape:cx="10"
     inkscape:cy="12"
     inkscape:window-x="-9"
     inkscape:window-y="63"
     inkscape:window-maximized="1"
     inkscape:current-layer="Layer_1" /><g
     id="notes-2_1_"
     transform="translate(-14,-9)"
     style="fill:#337ab7;fill-opacity:1"><g
       id="notes-2_5_"
       style="fill:#337ab7;fill-opacity:1"><g
         id="g5"
         style="fill:#337ab7;fill-opacity:1"><path
           d="m 18,14 0,-1.979 C 18,11.472 18.471,11 19.021,11 L 21,11 21,10.084 C 21,9.534 21.45,9 22,9 l 4,0 c 0.55,0 1,0.534 1,1.084 L 27,11 28.978,11 C 29.529,11 30,11.472 30,12.021 L 30,14 c 0,0.55 -0.471,1 -1.022,1 l -9.957,0 C 18.471,15 18,14.55 18,14 Z m 16,-1.5 0,23 c 0,0.275 -0.225,0.5 -0.5,0.5 l -19,0 C 14.225,36 14,35.775 14,35.5 l 0,-23 C 14,12.225 14.225,12 14.5,12 l 2.5,0 0,3 c 0,0.55 0.45,1 1,1 l 12,0 c 0.55,0 1,-0.45 1,-1 l 0,-3 2.5,0 c 0.275,0 0.5,0.225 0.5,0.5 z M 30.497,25.497 C 30.497,25.223 30.275,25 30,25 l -12,0 c -0.275,0 -0.497,0.223 -0.497,0.497 l 0,1.006 C 17.503,26.777 17.725,27 18,27 l 12,0 c 0.275,0 0.497,-0.223 0.497,-0.497 l 0,-1.006 z m 0,4 C 30.497,29.223 30.275,29 30,29 l -12,0 c -0.275,0 -0.497,0.223 -0.497,0.497 l 0,1.006 C 17.503,30.777 17.725,31 18,31 l 12,0 c 0.275,0 0.497,-0.223 0.497,-0.497 l 0,-1.006 z m 0,-8 C 30.497,21.223 30.275,21 30,21 l -12,0 c -0.275,0 -0.497,0.223 -0.497,0.497 l 0,1.006 C 17.503,22.777 17.725,23 18,23 l 12,0 c 0.275,0 0.497,-0.223 0.497,-0.497 l 0,-1.006 z"
           id="path7"
           inkscape:connector-curvature="0"
           style="fill:#337ab7;fill-opacity:1" /></g></g></g></svg>