<?xml version="1.0" encoding="UTF-8" standalone="no"?>
<!-- Generator: Adobe Illustrator 19.1.0, SVG Export Plug-In . SVG Version: 6.00 Build 0)  -->

<svg
   xmlns:dc="http://purl.org/dc/elements/1.1/"
   xmlns:cc="http://creativecommons.org/ns#"
   xmlns:rdf="http://www.w3.org/1999/02/22-rdf-syntax-ns#"
   xmlns:svg="http://www.w3.org/2000/svg"
   xmlns="http://www.w3.org/2000/svg"
   xmlns:sodipodi="http://sodipodi.sourceforge.net/DTD/sodipodi-0.dtd"
   xmlns:inkscape="http://www.inkscape.org/namespaces/inkscape"
   version="1.1"
   id="Layer_1"
   x="0px"
   y="0px"
   viewBox="0 0 26.86025 22.86025"
   xml:space="preserve"
   inkscape:version="0.91 r13725"
   sodipodi:docname="glyphicons-323-playing-dices-blue.svg"
   width="26.86025"
   height="22.86025"><metadata
     id="metadata6914"><rdf:RDF><cc:Work
         rdf:about=""><dc:format>image/svg+xml</dc:format><dc:type
           rdf:resource="http://purl.org/dc/dcmitype/StillImage" /><dc:title></dc:title></cc:Work></rdf:RDF></metadata><defs
     id="defs6912" /><sodipodi:namedview
     pagecolor="#ffffff"
     bordercolor="#666666"
     borderopacity="1"
     objecttolerance="10"
     gridtolerance="10"
     guidetolerance="10"
     inkscape:pageopacity="0"
     inkscape:pageshadow="2"
     inkscape:window-width="1920"
     inkscape:window-height="1019"
     id="namedview6910"
     showgrid="false"
     fit-margin-top="0"
     fit-margin-left="0"
     fit-margin-right="0"
     fit-margin-bottom="0"
     inkscape:zoom="4.9166667"
     inkscape:cx="12"
     inkscape:cy="12"
     inkscape:window-x="-9"
     inkscape:window-y="63"
     inkscape:window-maximized="1"
     inkscape:current-layer="Layer_1" /><g
     id="playing-dices_2_"
     transform="translate(-12,-13.13975)"
     style="fill:#337ab7;fill-opacity:1"><path
       d="m 37.985,20.379 -6.364,-6.364 c -1.166,-1.167 -3.076,-1.167 -4.242,0 L 21.394,20 25,20 c 1.65,0 3,1.35 3,3 l 0,3.51 c 0.322,-0.487 0.874,-0.81 1.5,-0.81 0.992,0 1.8,0.808 1.8,1.8 0,0.992 -0.808,1.8 -1.8,1.8 -0.626,0 -1.178,-0.322 -1.5,-0.81 l 0,2.958 c 1.146,0.662 2.644,0.516 3.621,-0.463 l 6.364,-6.364 c 1.167,-1.166 1.167,-3.076 0,-4.242 z M 29.5,19.3 c -0.992,0 -1.8,-0.808 -1.8,-1.8 0,-0.992 0.808,-1.8 1.8,-1.8 0.992,0 1.8,0.808 1.8,1.8 0,0.992 -0.808,1.8 -1.8,1.8 z m 5,5 c -0.992,0 -1.8,-0.808 -1.8,-1.8 0,-0.992 0.808,-1.8 1.8,-1.8 0.992,0 1.8,0.808 1.8,1.8 0,0.992 -0.808,1.8 -1.8,1.8 z M 24,21 15,21 c -1.65,0 -3,1.35 -3,3 l 0,9 c 0,1.65 1.35,3 3,3 l 9,0 c 1.65,0 3,-1.35 3,-3 l 0,-9 c 0,-1.65 -1.35,-3 -3,-3 z m -8.5,13.3 c -0.993,0 -1.8,-0.808 -1.8,-1.8 0,-0.992 0.807,-1.8 1.8,-1.8 0.993,0 1.8,0.808 1.8,1.8 0,0.992 -0.807,1.8 -1.8,1.8 z m 0,-8 c -0.993,0 -1.8,-0.808 -1.8,-1.8 0,-0.992 0.807,-1.8 1.8,-1.8 0.993,0 1.8,0.808 1.8,1.8 0,0.992 -0.807,1.8 -1.8,1.8 z m 4,4 c -0.993,0 -1.8,-0.808 -1.8,-1.8 0,-0.992 0.807,-1.8 1.8,-1.8 0.993,0 1.8,0.808 1.8,1.8 0,0.992 -0.807,1.8 -1.8,1.8 z m 4,4 c -0.993,0 -1.8,-0.808 -1.8,-1.8 0,-0.992 0.807,-1.8 1.8,-1.8 0.993,0 1.8,0.808 1.8,1.8 0,0.992 -0.807,1.8 -1.8,1.8 z m 0,-8 c -0.993,0 -1.8,-0.808 -1.8,-1.8 0,-0.992 0.807,-1.8 1.8,-1.8 0.993,0 1.8,0.808 1.8,1.8 0,0.992 -0.807,1.8 -1.8,1.8 z"
       id="path6908"
       inkscape:connector-curvature="0"
       style="fill:#337ab7;fill-opacity:1" /></g></svg>