<?xml version="1.0" encoding="UTF-8" standalone="no"?>
<!-- Generator: Adobe Illustrator 19.1.0, SVG Export Plug-In . SVG Version: 6.00 Build 0)  -->

<svg
   xmlns:dc="http://purl.org/dc/elements/1.1/"
   xmlns:cc="http://creativecommons.org/ns#"
   xmlns:rdf="http://www.w3.org/1999/02/22-rdf-syntax-ns#"
   xmlns:svg="http://www.w3.org/2000/svg"
   xmlns="http://www.w3.org/2000/svg"
   xmlns:sodipodi="http://sodipodi.sourceforge.net/DTD/sodipodi-0.dtd"
   xmlns:inkscape="http://www.inkscape.org/namespaces/inkscape"
   version="1.1"
   id="Layer_1"
   x="0px"
   y="0px"
   viewBox="0 0 27 24.500257"
   xml:space="preserve"
   inkscape:version="0.91 r13725"
   sodipodi:docname="glyphicons-625-donate-blue.svg"
   width="27"
   height="24.500257"><metadata
     id="metadata5814"><rdf:RDF><cc:Work
         rdf:about=""><dc:format>image/svg+xml</dc:format><dc:type
           rdf:resource="http://purl.org/dc/dcmitype/StillImage" /><dc:title></dc:title></cc:Work></rdf:RDF></metadata><defs
     id="defs5812" /><sodipodi:namedview
     pagecolor="#ffffff"
     bordercolor="#666666"
     borderopacity="1"
     objecttolerance="10"
     gridtolerance="10"
     guidetolerance="10"
     inkscape:pageopacity="0"
     inkscape:pageshadow="2"
     inkscape:window-width="1920"
     inkscape:window-height="1019"
     id="namedview5810"
     showgrid="false"
     fit-margin-top="0"
     fit-margin-left="0"
     fit-margin-right="0"
     fit-margin-bottom="0"
     inkscape:zoom="4.9166667"
     inkscape:cx="14"
     inkscape:cy="12.497"
     inkscape:window-x="-9"
     inkscape:window-y="63"
     inkscape:window-maximized="1"
     inkscape:current-layer="Layer_1" /><g
     id="donate_2_"
     transform="translate(-10,-11.996742)"
     style="fill:#337ab7;fill-opacity:1"><path
       d="m 19.995,14.51 c 0,-2.148 2.978,-3.675 4.499,-1.346 1.616,-2.329 4.499,-0.802 4.499,1.346 0,1.656 -2.59,3.083 -4.499,5.694 -1.909,-2.612 -4.499,-4.039 -4.499,-5.694 z M 12.459,28.506 10,30.964 l 5.5,5.533 1.752,-1.752 c 0.389,-0.389 0.388,-1.026 0,-1.414 L 12.459,28.506 Z M 37,22 c 0,0.781 -0.016,1.031 -0.757,1.608 0,0 -5.853,4.898 -7.07,5.947 C 27.956,30.605 27.641,31 25.484,31 23.327,31 21,31 21,31 l -1.276,1.372 c -0.545,0.414 -0.938,0.414 -1.392,-10e-4 l -4.873,-4.626 c -0.348,-0.337 -0.417,-0.624 -0.146,-1.026 l 2.796,-2.687 c 0,0 4.727,-2.631 5.165,-2.883 0.438,-0.252 0.888,-0.243 1.288,-0.056 C 22.963,21.281 26,23 26,23 l 3,0 c 0.347,0 0.662,0.178 0.844,0.473 0.182,0.295 0.199,0.663 0.044,0.973 l -0.285,0.281 5.442,-3.56 c 0,0 0.283,-0.089 0.47,-0.135 C 35.702,20.986 35.781,21 36,21 c 0.219,0 1,0.427 1,1 z M 30.159,26.227 28,27 20.422,27 c 0,0 -0.351,0.031 -0.351,-0.441 0,-0.472 0.335,-0.512 0.335,-0.512 L 28.971,25.01 25.716,24.801 22,22.781 l -4.563,2.391 -2.328,1.969 3.922,3.531 1.41,-1.4 C 20.594,29.124 20.79,29.028 21,29 l 5.641,0 3.518,-2.773 z"
       id="path5808"
       inkscape:connector-curvature="0"
       style="fill:#337ab7;fill-opacity:1" /></g></svg>