<?xml version="1.0" encoding="UTF-8" standalone="no"?>
<!-- Generator: Adobe Illustrator 19.1.0, SVG Export Plug-In . SVG Version: 6.00 Build 0)  -->

<svg
   xmlns:dc="http://purl.org/dc/elements/1.1/"
   xmlns:cc="http://creativecommons.org/ns#"
   xmlns:rdf="http://www.w3.org/1999/02/22-rdf-syntax-ns#"
   xmlns:svg="http://www.w3.org/2000/svg"
   xmlns="http://www.w3.org/2000/svg"
   xmlns:sodipodi="http://sodipodi.sourceforge.net/DTD/sodipodi-0.dtd"
   xmlns:inkscape="http://www.inkscape.org/namespaces/inkscape"
   version="1.1"
   id="Layer_1"
   x="0px"
   y="0px"
   viewBox="0 0 23.866249 20.866501"
   xml:space="preserve"
   inkscape:version="0.91 r13725"
   sodipodi:docname="glyphicons-151-edit-blue.svg"
   width="23.866249"
   height="20.866501"><metadata
     id="metadata16"><rdf:RDF><cc:Work
         rdf:about=""><dc:format>image/svg+xml</dc:format><dc:type
           rdf:resource="http://purl.org/dc/dcmitype/StillImage" /><dc:title></dc:title></cc:Work></rdf:RDF></metadata><defs
     id="defs14" /><sodipodi:namedview
     pagecolor="#ffffff"
     bordercolor="#666666"
     borderopacity="1"
     objecttolerance="10"
     gridtolerance="10"
     guidetolerance="10"
     inkscape:pageopacity="0"
     inkscape:pageshadow="2"
     inkscape:window-width="1920"
     inkscape:window-height="1019"
     id="namedview12"
     showgrid="false"
     fit-margin-top="0"
     fit-margin-left="0"
     fit-margin-right="0"
     fit-margin-bottom="0"
     inkscape:zoom="4.9166667"
     inkscape:cx="9"
     inkscape:cy="9"
     inkscape:window-x="-9"
     inkscape:window-y="63"
     inkscape:window-maximized="1"
     inkscape:current-layer="Layer_1" /><g
     id="edit_2_"
     transform="translate(-15,-12.1335)"
     style="fill:#337ab7;fill-opacity:1"><path
       d="M 31,25.656 31,30 c 0,0.55 -0.45,1 -1,1 l -12,0 c -0.55,0 -1,-0.45 -1,-1 l 0,-12 c 0,-0.55 0.45,-1 1,-1 l 10.344,0 1.809,-1.811 C 29.785,15.078 29.404,15 29,15 l -10,0 c -2.205,0 -4,1.794 -4,4 l 0,10 c 0,2.206 1.795,4 4,4 l 10,0 c 2.205,0 4,-1.794 4,-4 l 0,-5.343 -2,1.999 z"
       id="path4"
       inkscape:connector-curvature="0"
       style="fill:#337ab7;fill-opacity:1" /><path
       d="m 38.717,14.451 -2.168,-2.169 c -0.199,-0.198 -0.524,-0.198 -0.725,0 l -1.445,1.446 2.893,2.893 1.445,-1.445 c 0.199,-0.2 0.199,-0.526 0,-0.725 z"
       id="path6"
       inkscape:connector-curvature="0"
       style="fill:#337ab7;fill-opacity:1" /><path
       d="m 26.333,27.459 -2.792,-2.833 -1.632,4.172 c -0.101,0.263 0.03,0.394 0.294,0.293 l 4.13,-1.632 z"
       id="path8"
       inkscape:connector-curvature="0"
       style="fill:#337ab7;fill-opacity:1" /><rect
       x="28.357"
       y="14.163"
       transform="matrix(0.7071,0.7071,-0.7071,0.7071,23.47,-15.4649)"
       width="4.0910001"
       height="12.869"
       id="rect10"
       style="fill:#337ab7;fill-opacity:1" /></g></svg>