<?xml version="1.0" encoding="UTF-8" standalone="no"?>
<!-- Generator: Adobe Illustrator 19.1.0, SVG Export Plug-In . SVG Version: 6.00 Build 0)  -->

<svg
   xmlns:dc="http://purl.org/dc/elements/1.1/"
   xmlns:cc="http://creativecommons.org/ns#"
   xmlns:rdf="http://www.w3.org/1999/02/22-rdf-syntax-ns#"
   xmlns:svg="http://www.w3.org/2000/svg"
   xmlns="http://www.w3.org/2000/svg"
   xmlns:sodipodi="http://sodipodi.sourceforge.net/DTD/sodipodi-0.dtd"
   xmlns:inkscape="http://www.inkscape.org/namespaces/inkscape"
   version="1.1"
   id="Layer_1"
   x="0px"
   y="0px"
   viewBox="0 0 18.151123 23.781"
   xml:space="preserve"
   inkscape:version="0.91 r13725"
   sodipodi:docname="glyphicons-592-person-running-blue.svg"
   width="18.151123"
   height="23.781"><metadata
     id="metadata4156"><rdf:RDF><cc:Work
         rdf:about=""><dc:format>image/svg+xml</dc:format><dc:type
           rdf:resource="http://purl.org/dc/dcmitype/StillImage" /><dc:title></dc:title></cc:Work></rdf:RDF></metadata><defs
     id="defs4154" /><sodipodi:namedview
     pagecolor="#ffffff"
     bordercolor="#666666"
     borderopacity="1"
     objecttolerance="10"
     gridtolerance="10"
     guidetolerance="10"
     inkscape:pageopacity="0"
     inkscape:pageshadow="2"
     inkscape:window-width="1920"
     inkscape:window-height="1019"
     id="namedview4152"
     showgrid="false"
     fit-margin-top="0"
     fit-margin-left="0"
     fit-margin-right="0"
     fit-margin-bottom="0"
     inkscape:zoom="4.9166667"
     inkscape:cx="8.1397021"
     inkscape:cy="12"
     inkscape:window-x="-9"
     inkscape:window-y="63"
     inkscape:window-maximized="1"
     inkscape:current-layer="Layer_1" /><g
     id="person-running_2_"
     transform="translate(-15.860298,-12.219)"
     style="fill:#337ab7;fill-opacity:1"><path
       d="m 27.898,21.501 -1.421,2.947 c 0,0 4.257,1.849 4.805,2.01 0.765,0.261 0.739,0.905 0.504,1.343 -0.187,0.349 -2.423,2.809 -3.322,3.791 l 1.385,1.52 c 0.18,0.208 0.144,0.581 -0.017,0.742 -0.161,0.161 -0.541,0.248 -0.764,0.087 L 26.705,32.15 C 26.497,32 26.447,31.721 26.569,31.502 l 2.361,-3.384 -4.009,-0.791 -3.069,3.426 -4.198,3.333 0.346,0.68 0.598,0.102 c 0.269,0.059 0.446,0.309 0.432,0.603 -0.014,0.294 -0.284,0.524 -0.559,0.529 l -0.877,-0.005 c 0,0 -1.277,-0.999 -1.57,-1.292 -0.293,-0.293 -0.148,-0.609 0.086,-0.891 0.05,-0.06 3.247,-4.016 3.247,-4.016 l 2.777,-5.538 1.709,-4.927 -2.378,0.307 c -0.273,0.035 -0.648,0.23 -0.834,0.433 l -2.38,2.599 c -0.186,0.203 -0.551,0.345 -0.885,0.345 -0.334,0 -0.376,-0.209 -0.226,-0.44 l 2.539,-3.876 c 0.151,-0.23 0.486,-0.493 0.745,-0.585 0,0 4.747,-1.677 5.341,-1.755 0.594,-0.078 1.067,0.062 1.067,0.062 0.03,0.009 0.871,0.46 0.871,0.46 0.24,0.135 0.524,0.451 0.632,0.705 l 1.169,2.755 c 0.107,0.253 0.4,0.366 0.65,0.252 l 3.094,-1.415 c 0.25,-0.115 0.564,-0.06 0.697,0.12 0.133,0.18 0.06,0.46 -0.163,0.621 l -4.065,2.945 c -0.223,0.161 -0.551,0.122 -0.73,-0.087 l -1.089,-1.276 z m 1.602,-4.72 c 1.26,0 2.281,-1.021 2.281,-2.281 0,-1.26 -1.021,-2.281 -2.281,-2.281 -1.26,0 -2.281,1.021 -2.281,2.281 0,1.26 1.021,2.281 2.281,2.281 z"
       id="path4150"
       inkscape:connector-curvature="0"
       style="fill:#337ab7;fill-opacity:1" /></g></svg>