<?xml version="1.0" encoding="UTF-8" standalone="no"?>
<!-- Generator: Adobe Illustrator 19.1.0, SVG Export Plug-In . SVG Version: 6.00 Build 0)  -->

<svg
   xmlns:dc="http://purl.org/dc/elements/1.1/"
   xmlns:cc="http://creativecommons.org/ns#"
   xmlns:rdf="http://www.w3.org/1999/02/22-rdf-syntax-ns#"
   xmlns:svg="http://www.w3.org/2000/svg"
   xmlns="http://www.w3.org/2000/svg"
   xmlns:sodipodi="http://sodipodi.sourceforge.net/DTD/sodipodi-0.dtd"
   xmlns:inkscape="http://www.inkscape.org/namespaces/inkscape"
   version="1.1"
   id="Layer_1"
   x="0px"
   y="0px"
   viewBox="0 0 24.647018 24"
   xml:space="preserve"
   inkscape:version="0.91 r13725"
   sodipodi:docname="glyphicons-649-important-day-blue.svg"
   width="24.647018"
   height="24"><metadata
     id="metadata7464"><rdf:RDF><cc:Work
         rdf:about=""><dc:format>image/svg+xml</dc:format><dc:type
           rdf:resource="http://purl.org/dc/dcmitype/StillImage" /><dc:title></dc:title></cc:Work></rdf:RDF></metadata><defs
     id="defs7462" /><sodipodi:namedview
     pagecolor="#ffffff"
     bordercolor="#666666"
     borderopacity="1"
     objecttolerance="10"
     gridtolerance="10"
     guidetolerance="10"
     inkscape:pageopacity="0"
     inkscape:pageshadow="2"
     inkscape:window-width="1920"
     inkscape:window-height="1019"
     id="namedview7460"
     showgrid="false"
     fit-margin-top="0"
     fit-margin-left="0"
     fit-margin-right="0"
     fit-margin-bottom="0"
     inkscape:zoom="4.9166667"
     inkscape:cx="12"
     inkscape:cy="12"
     inkscape:window-x="-9"
     inkscape:window-y="63"
     inkscape:window-maximized="1"
     inkscape:current-layer="Layer_1" /><g
     id="important-day_2_"
     transform="translate(-12,-12)"
     style="fill:#337ab7;fill-opacity:1"><path
       d="m 23,17 -10,0 c -0.55,0 -1,0.45 -1,1 l 0,2 11,0 0,-3 z m -8.5,2.353 c -0.469,0 -0.853,-0.384 -0.853,-0.853 0,-0.469 0.384,-0.853 0.853,-0.853 0.469,0 0.853,0.384 0.853,0.853 0,0.469 -0.384,0.853 -0.853,0.853 z m 22.024,-6.749 -6.191,7.355 c -0.069,0.086 -0.185,0.089 -0.258,0.007 L 27.081,16.72 c -0.073,-0.082 -0.069,-0.213 0.009,-0.291 l 0.234,-0.307 c 0.078,-0.078 0.222,-0.101 0.321,-0.052 l 2.564,1.163 5.779,-5.078 c 0.411,-0.414 0.889,0.096 0.536,0.449 z M 28,25 l -2,0 0,-1 c -0.352,0 -0.686,-0.072 -1,-0.184 l 0,1.184 -2,0 0,-2 0.78,0 C 23.3,22.468 23,21.771 23,21 l -11,0 0,14 c 0,0.55 0.45,1 1,1 l 16,0 c 0.55,0 1,-0.45 1,-1 l 0,-11 -2,0 0,1 z m -12,9 -2,0 0,-2 2,0 0,2 z m 0,-3 -2,0 0,-2 2,0 0,2 z m 0,-3 -2,0 0,-2 2,0 0,2 z m 0,-3 -2,0 0,-2 2,0 0,2 z m 3,9 -2,0 0,-2 2,0 0,2 z m 0,-3 -2,0 0,-2 2,0 0,2 z m 0,-3 -2,0 0,-2 2,0 0,2 z m 0,-3 -2,0 0,-2 2,0 0,2 z m 3,9 -2,0 0,-2 2,0 0,2 z m 0,-3 -2,0 0,-2 2,0 0,2 z m 0,-3 -2,0 0,-2 2,0 0,2 z m 0,-3 -2,0 0,-2 2,0 0,2 z m 3,9 -2,0 0,-2 2,0 0,2 z m 0,-3 -2,0 0,-2 2,0 0,2 z m 0,-3 -2,0 0,-2 2,0 0,2 z m 3,6 -2,0 0,-2 2,0 0,2 z m 0,-3 -2,0 0,-2 2,0 0,2 z m 0,-3 -2,0 0,-2 2,0 0,2 z M 32.998,18.809 35,16.428 35,21 c 0,1.103 -0.897,2 -2,2 l -7,0 c -1.103,0 -2,-0.897 -2,-2 l 0,-7 c 0,-1.103 0.897,-2 2,-2 l 7,0 c 0.34,0 0.655,0.093 0.935,0.243 L 31.967,14 26,14 l 0,7 6.997,0 10e-4,-2.191 z"
       id="path7458"
       inkscape:connector-curvature="0"
       style="fill:#337ab7;fill-opacity:1" /></g></svg>