<?xml version="1.0" encoding="UTF-8" standalone="no"?>
<!-- Generator: Adobe Illustrator 19.1.0, SVG Export Plug-In . SVG Version: 6.00 Build 0)  -->

<svg
   xmlns:dc="http://purl.org/dc/elements/1.1/"
   xmlns:cc="http://creativecommons.org/ns#"
   xmlns:rdf="http://www.w3.org/1999/02/22-rdf-syntax-ns#"
   xmlns:svg="http://www.w3.org/2000/svg"
   xmlns="http://www.w3.org/2000/svg"
   xmlns:sodipodi="http://sodipodi.sourceforge.net/DTD/sodipodi-0.dtd"
   xmlns:inkscape="http://www.inkscape.org/namespaces/inkscape"
   version="1.1"
   id="Layer_1"
   x="0px"
   y="0px"
   viewBox="0 0 28 24"
   xml:space="preserve"
   inkscape:version="0.91 r13725"
   sodipodi:docname="glyphicons-276-fast-food-blue.svg"
   width="28"
   height="24"><metadata
     id="metadata4714"><rdf:RDF><cc:Work
         rdf:about=""><dc:format>image/svg+xml</dc:format><dc:type
           rdf:resource="http://purl.org/dc/dcmitype/StillImage" /><dc:title></dc:title></cc:Work></rdf:RDF></metadata><defs
     id="defs4712" /><sodipodi:namedview
     pagecolor="#ffffff"
     bordercolor="#666666"
     borderopacity="1"
     objecttolerance="10"
     gridtolerance="10"
     guidetolerance="10"
     inkscape:pageopacity="0"
     inkscape:pageshadow="2"
     inkscape:window-width="1920"
     inkscape:window-height="1019"
     id="namedview4710"
     showgrid="false"
     fit-margin-top="0"
     fit-margin-left="0"
     fit-margin-right="0"
     fit-margin-bottom="0"
     inkscape:zoom="4.9166667"
     inkscape:cx="13"
     inkscape:cy="12"
     inkscape:window-x="-9"
     inkscape:window-y="63"
     inkscape:window-maximized="1"
     inkscape:current-layer="Layer_1" /><g
     id="fast-food_2_"
     transform="translate(-11,-12)"
     style="fill:#337ab7;fill-opacity:1"><path
       d="M 34.125,13.969 33.496,17 39,17 39,19 37.842,19 36.041,36 27,36 25.18,19 l -1.158,0 0,-2 7.182,0 1.203,-5 6.593,0 0,1.969 -4.875,0 z M 14.5,36 l 7,0 c 1.649,0 3,-1.35 3,-3 l -13,0 c 0,1.65 1.351,3 3,3 z M 18.001,25 C 13.5,25 11.5,26.779 11.5,28.979 l 13,0 C 24.5,26.779 22.502,25 18.001,25 Z m 6.499,5.021 -13,0 c -0.275,0 -0.5,0.225 -0.5,0.5 l 0,0.979 c 0,0.275 0.225,0.5 0.5,0.5 l 13,0 c 0.275,0 0.5,-0.225 0.5,-0.5 l 0,-0.979 c 0,-0.276 -0.225,-0.5 -0.5,-0.5 z"
       id="path4708"
       inkscape:connector-curvature="0"
       style="fill:#337ab7;fill-opacity:1" /></g></svg>